{
  "accessors": [
    {
      "bufferView": 2,
      "componentType": 5126,
      "count": 1098,
      "max": [
        5.972400188446045,
        4.433499813079834,
        1.6883000135421753
      ],
      "min": [
        -4.998000144958496,
        -4.076099872589111,
        -1.6883000135421753
      ],
      "type": "VEC3"
    },
    {
      "bufferView": 2,
      "byteOffset": 13176,
      "componentType": 5126,
      "count": 1098,
      "max": [
        1.0,
        1.0,
        0.9973961710929871
      ],
      "min": [
        -0.9992327690124512,
        -0.9999315738677979,
        -0.9973961710929871
      ],
      "type": "VEC3"
    },
    {
      "bufferView": 1,
      "componentType": 5126,
      "count": 1098,
      "max": [
        0.9836999773979187,
        0.991100013256073
      ],
      "min": [
        0.012199999764561653,
        0.02319999970495701
      ],
      "type": "VEC2"
    },
    {
      "bufferView": 0,
      "componentType": 5125,
      "count": 5730,
      "type": "SCALAR"
    }
  ],
  "asset": {
    "extras": {
      "author": "Csaba Baity (tsabszy) (https://sketchfab.com/tsabszy)",
      "license": "CC-BY-4.0 (http://creativecommons.org/licenses/by/4.0/)",
      "source": "https://sketchfab.com/3d-models/gun-of-leila-from-d-the-vampire-hunter-blood-l-3RXKSlKHlIhV8Cjs1DqRq3mQheN",
      "title": "Gun of Leila from D the Vampire Hunter - Blood L"
    },
    "generator": "Sketchfab-12.67.0",
    "version": "2.0"
  },
  "bufferViews": [
    {
      "buffer": 0,
      "byteLength": 22920,
      "name": "floatBufferViews",
      "target": 34963
    },
    {
      "buffer": 0,
      "byteLength": 8784,
      "byteOffset": 22920,
      "byteStride": 8,
      "name": "floatBufferViews",
      "target": 34962
    },
    {
      "buffer": 0,
      "byteLength": 26352,
      "byteOffset": 31704,
      "byteStride": 12,
      "name": "floatBufferViews",
      "target": 34962
    }
  ],
  "buffers": [
    {
      "byteLength": 58056,
      "uri": "scene.bin"
    }
  ],
  "images": [
    {
      "uri": "textures/06___Default_baseColor.png"
    }
  ],
  "materials": [
    {
      "doubleSided": true,
      "name": "06___Default",
      "pbrMetallicRoughness": {
        "baseColorTexture": {
          "index": 0
        },
        "metallicFactor": 0.0,
        "roughnessFactor": 0.6
      }
    }
  ],
  "meshes": [
    {
      "name": "Object_0",
      "primitives": [
        {
          "attributes": {
            "NORMAL": 1,
            "POSITION": 0,
            "TEXCOORD_0": 2
          },
          "indices": 3,
          "material": 0,
          "mode": 4
        }
      ]
    }
  ],
  "nodes": [
    {
      "children": [
        1
      ],
      "matrix": [
        1.0,
        0.0,
        0.0,
        0.0,
        0.0,
        -1.0,
        -2.220446049250313e-16,
        0.0,
        0.0,
        2.220446049250313e-16,
        -1.0,
        0.0,
        0.0,
        0.0,
        0.0,
        1.0
      ],
      "name": "Sketchfab_model"
    },
    {
      "children": [
        2
      ],
      "name": "0e3ae16d96c24d678a602c000a9e7496.obj.cleaner.materialmerger.gles"
    },
    {
      "mesh": 0,
      "name": "Object_2"
    }
  ],
  "samplers": [
    {
      "magFilter": 9729,
      "minFilter": 9987,
      "wrapS": 10497,
      "wrapT": 10497
    }
  ],
  "scene": 0,
  "scenes": [
    {
      "name": "Sketchfab_Scene",
      "nodes": [
        0
      ]
    }
  ],
  "textures": [
    {
      "sampler": 0,
      "source": 0
    }
  ]
}
