{
  "accessors": [
    {
      "bufferView": 2,
      "componentType": 5126,
      "count": 506,
      "max": [
        117.55890655517578,
        104.10338592529297,
        260.1324462890625
      ],
      "min": [
        -225.64715576171875,
        67.2344970703125,
        -199.12249755859375
      ],
      "type": "VEC3"
    },
    {
      "bufferView": 2,
      "byteOffset": 6072,
      "componentType": 5126,
      "count": 506,
      "max": [
        0.9999938607215881,
        1.0,
        0.9993935227394104
      ],
      "min": [
        -0.9903303384780884,
        -0.976982057094574,
        -0.982352614402771
      ],
      "type": "VEC3"
    },
    {
      "bufferView": 1,
      "componentType": 5126,
      "count": 506,
      "max": [
        0.9024312496185303,
        0.9865996837615967
      ],
      "min": [
        0.013393193483352661,
        0.05028325319290161
      ],
      "type": "VEC2"
    },
    {
      "bufferView": 1,
      "byteOffset": 4048,
      "componentType": 5126,
      "count": 506,
      "max": [
        0.9845448732376099,
        0.9308394193649292
      ],
      "min": [
        0.05193299055099487,
        0.025668516755104065
      ],
      "type": "VEC2"
    },
    {
      "bufferView": 1,
      "byteOffset": 8096,
      "componentType": 5126,
      "count": 506,
      "max": [
        0.9200312495231628,
        0.9505911469459534
      ],
      "min": [
        0.013398617506027222,
        0.049998074769973755
      ],
      "type": "VEC2"
    },
    {
      "bufferView": 1,
      "byteOffset": 12144,
      "componentType": 5126,
      "count": 506,
      "max": [
        1.7292832136154175,
        0.9303105473518372
      ],
      "min": [
        0.34056100249290466,
        0.5850527286529541
      ],
      "type": "VEC2"
    },
    {
      "bufferView": 1,
      "byteOffset": 16192,
      "componentType": 5126,
      "count": 506,
      "max": [
        0.9845448732376099,
        0.9308394193649292
      ],
      "min": [
        0.05193299055099487,
        0.025668516755104065
      ],
      "type": "VEC2"
    },
    {
      "bufferView": 0,
      "componentType": 5125,
      "count": 1296,
      "type": "SCALAR"
    },
    {
      "bufferView": 2,
      "byteOffset": 12144,
      "componentType": 5126,
      "count": 3057,
      "max": [
        118.93933868408203,
        125.56382751464844,
        261.27276611328125
      ],
      "min": [
        -226.97589111328125,
        -0.916549026966095,
        -200.428955078125
      ],
      "type": "VEC3"
    },
    {
      "bufferView": 2,
      "byteOffset": 48828,
      "componentType": 5126,
      "count": 3057,
      "max": [
        0.999994158744812,
        1.0,
        0.9993934631347656
      ],
      "min": [
        -0.9903297424316406,
        -1.0,
        -0.9993937611579895
      ],
      "type": "VEC3"
    },
    {
      "bufferView": 3,
      "componentType": 5126,
      "count": 3057,
      "max": [
        0.9999046325683594,
        0.9999694228172302,
        0.9999780058860779,
        1.0
      ],
      "min": [
        -0.9999344944953918,
        -0.9998701214790344,
        -0.9999327659606934,
        -1.0
      ],
      "type": "VEC4"
    },
    {
      "bufferView": 1,
      "byteOffset": 20240,
      "componentType": 5126,
      "count": 3057,
      "max": [
        0.9844353795051575,
        0.9418203830718994
      ],
      "min": [
        0.013393193483352661,
        0.013400346040725708
      ],
      "type": "VEC2"
    },
    {
      "bufferView": 1,
      "byteOffset": 44696,
      "componentType": 5126,
      "count": 3057,
      "max": [
        0.8745194673538208,
        0.9273772239685059
      ],
      "min": [
        0.016705632209777832,
        0.02566850185394287
      ],
      "type": "VEC2"
    },
    {
      "bufferView": 1,
      "byteOffset": 69152,
      "componentType": 5126,
      "count": 3057,
      "max": [
        0.9550888538360596,
        0.9817790985107422
      ],
      "min": [
        0.013398617506027222,
        0.013399869203567505
      ],
      "type": "VEC2"
    },
    {
      "bufferView": 1,
      "byteOffset": 93608,
      "componentType": 5126,
      "count": 3057,
      "max": [
        1.612907886505127,
        1.025820016860962
      ],
      "min": [
        0.21379731595516205,
        0.26851731538772583
      ],
      "type": "VEC2"
    },
    {
      "bufferView": 1,
      "byteOffset": 118064,
      "componentType": 5126,
      "count": 3057,
      "max": [
        0.8745194673538208,
        0.9273772239685059
      ],
      "min": [
        0.016705632209777832,
        0.02566850185394287
      ],
      "type": "VEC2"
    },
    {
      "bufferView": 0,
      "byteOffset": 5184,
      "componentType": 5125,
      "count": 8532,
      "type": "SCALAR"
    },
    {
      "bufferView": 2,
      "byteOffset": 85512,
      "componentType": 5126,
      "count": 1582,
      "max": [
        80.95745086669922,
        91.83123779296875,
        182.5501708984375
      ],
      "min": [
        -140.94708251953125,
        41.83089828491211,
        -146.184326171875
      ],
      "type": "VEC3"
    },
    {
      "bufferView": 2,
      "byteOffset": 104496,
      "componentType": 5126,
      "count": 1582,
      "max": [
        0.9979368448257446,
        0.9999990463256836,
        0.9987881183624268
      ],
      "min": [
        -0.9934567809104919,
        -1.0,
        -0.9907885193824768
      ],
      "type": "VEC3"
    },
    {
      "bufferView": 1,
      "byteOffset": 142520,
      "componentType": 5126,
      "count": 1582,
      "max": [
        0.9860720634460449,
        0.8663246631622314
      ],
      "min": [
        0.013393193483352661,
        0.013400346040725708
      ],
      "type": "VEC2"
    },
    {
      "bufferView": 1,
      "byteOffset": 155176,
      "componentType": 5126,
      "count": 1582,
      "max": [
        0.9310203790664673,
        0.9280894994735718
      ],
      "min": [
        0.016705691814422607,
        0.02566850185394287
      ],
      "type": "VEC2"
    },
    {
      "bufferView": 1,
      "byteOffset": 167832,
      "componentType": 5126,
      "count": 1582,
      "max": [
        0.9700359106063843,
        0.9865996837615967
      ],
      "min": [
        0.04169672727584839,
        0.013400346040725708
      ],
      "type": "VEC2"
    },
    {
      "bufferView": 1,
      "byteOffset": 180488,
      "componentType": 5126,
      "count": 1582,
      "max": [
        0.9702447056770325,
        0.8515834808349609
      ],
      "min": [
        0.2544923424720764,
        0.4190569221973419
      ],
      "type": "VEC2"
    },
    {
      "bufferView": 1,
      "byteOffset": 193144,
      "componentType": 5126,
      "count": 1582,
      "max": [
        0.9310203790664673,
        0.9280894994735718
      ],
      "min": [
        0.016705691814422607,
        0.02566850185394287
      ],
      "type": "VEC2"
    },
    {
      "bufferView": 0,
      "byteOffset": 39312,
      "componentType": 5125,
      "count": 5160,
      "type": "SCALAR"
    },
    {
      "bufferView": 2,
      "byteOffset": 123480,
      "componentType": 5126,
      "count": 1186,
      "max": [
        114.26055908203125,
        122.76526641845703,
        173.96923828125
      ],
      "min": [
        -133.64981079101563,
        18.62854766845703,
        -138.95101928710938
      ],
      "type": "VEC3"
    },
    {
      "bufferView": 2,
      "byteOffset": 137712,
      "componentType": 5126,
      "count": 1186,
      "max": [
        0.99241042137146,
        0.9999800324440002,
        0.9825121760368347
      ],
      "min": [
        -0.9688825607299805,
        -0.9999379515647888,
        -0.9996084570884705
      ],
      "type": "VEC3"
    },
    {
      "bufferView": 3,
      "byteOffset": 48912,
      "componentType": 5126,
      "count": 1186,
      "max": [
        0.9999936819076538,
        0.9986699819564819,
        0.9998503923416138,
        1.0
      ],
      "min": [
        -0.9996275305747986,
        -0.9999064207077026,
        -0.9998615384101868,
        1.0
      ],
      "type": "VEC4"
    },
    {
      "bufferView": 1,
      "byteOffset": 205800,
      "componentType": 5126,
      "count": 1186,
      "max": [
        0.9843242168426514,
        0.42488670349121094
      ],
      "min": [
        0.07821229100227356,
        0.013400346040725708
      ],
      "type": "VEC2"
    },
    {
      "bufferView": 1,
      "byteOffset": 215288,
      "componentType": 5126,
      "count": 1186,
      "max": [
        0.9332712888717651,
        0.9237748384475708
      ],
      "min": [
        0.016705632209777832,
        0.02566850185394287
      ],
      "type": "VEC2"
    },
    {
      "bufferView": 1,
      "byteOffset": 224776,
      "componentType": 5126,
      "count": 1186,
      "max": [
        0.9864729642868042,
        0.882422685623169
      ],
      "min": [
        0.13366517424583435,
        0.013399988412857056
      ],
      "type": "VEC2"
    },
    {
      "bufferView": 1,
      "byteOffset": 234264,
      "componentType": 5126,
      "count": 1186,
      "max": [
        1.3298982381820679,
        1.0817549228668213
      ],
      "min": [
        0.26350900530815125,
        0.4376508891582489
      ],
      "type": "VEC2"
    },
    {
      "bufferView": 1,
      "byteOffset": 243752,
      "componentType": 5126,
      "count": 1186,
      "max": [
        0.9332712888717651,
        0.9237748384475708
      ],
      "min": [
        0.016705632209777832,
        0.02566850185394287
      ],
      "type": "VEC2"
    },
    {
      "bufferView": 0,
      "byteOffset": 59952,
      "componentType": 5125,
      "count": 2700,
      "type": "SCALAR"
    }
  ],
  "asset": {
    "extras": {
      "author": "cmburgan417 (https://sketchfab.com/camheboss444)",
      "license": "CC-BY-4.0 (http://creativecommons.org/licenses/by/4.0/)",
      "source": "https://sketchfab.com/3d-models/sci-fi-table-939567d9d0284e09969d23b4fd2a76ee",
      "title": "Sci-fi Table"
    },
    "generator": "Sketchfab-12.68.0",
    "version": "2.0"
  },
  "bufferViews": [
    {
      "buffer": 0,
      "byteLength": 70752,
      "name": "floatBufferViews",
      "target": 34963
    },
    {
      "buffer": 0,
      "byteLength": 253240,
      "byteOffset": 70752,
      "byteStride": 8,
      "name": "floatBufferViews",
      "target": 34962
    },
    {
      "buffer": 0,
      "byteLength": 151944,
      "byteOffset": 323992,
      "byteStride": 12,
      "name": "floatBufferViews",
      "target": 34962
    },
    {
      "buffer": 0,
      "byteLength": 67888,
      "byteOffset": 475936,
      "byteStride": 16,
      "name": "floatBufferViews",
      "target": 34962
    }
  ],
  "buffers": [
    {
      "byteLength": 543824,
      "uri": "scene.bin"
    }
  ],
  "images": [
    {
      "uri": "textures/SM_TableSG9_baseColor.png"
    },
    {
      "uri": "textures/SM_TableSG9_metallicRoughness.png"
    },
    {
      "uri": "textures/SM_TableSG9_emissive.png"
    },
    {
      "uri": "textures/SM_TableSG10_baseColor.png"
    },
    {
      "uri": "textures/SM_TableSG10_metallicRoughness.png"
    },
    {
      "uri": "textures/SM_TableSG10_normal.png"
    },
    {
      "uri": "textures/SM_TableSG8_baseColor.png"
    },
    {
      "uri": "textures/SM_TableSG8_metallicRoughness.png"
    },
    {
      "uri": "textures/SM_TableSG8_emissive.png"
    },
    {
      "uri": "textures/SM_TableSG14_baseColor.png"
    },
    {
      "uri": "textures/SM_TableSG14_metallicRoughness.png"
    },
    {
      "uri": "textures/SM_TableSG14_emissive.png"
    },
    {
      "uri": "textures/SM_TableSG14_normal.png"
    }
  ],
  "materials": [
    {
      "doubleSided": true,
      "emissiveFactor": [
        0.6251178033550396,
        0.6251178033550396,
        0.6251178033550396
      ],
      "emissiveTexture": {
        "index": 2
      },
      "name": "SM_TableSG9",
      "pbrMetallicRoughness": {
        "baseColorTexture": {
          "index": 0
        },
        "metallicRoughnessTexture": {
          "index": 1
        }
      }
    },
    {
      "doubleSided": true,
      "name": "SM_TableSG10",
      "normalTexture": {
        "index": 5
      },
      "pbrMetallicRoughness": {
        "baseColorTexture": {
          "index": 3
        },
        "metallicRoughnessTexture": {
          "index": 4
        }
      }
    },
    {
      "doubleSided": true,
      "emissiveFactor": [
        1.0,
        1.0,
        1.0
      ],
      "emissiveTexture": {
        "index": 8
      },
      "name": "SM_TableSG8",
      "pbrMetallicRoughness": {
        "baseColorTexture": {
          "index": 6
        },
        "metallicRoughnessTexture": {
          "index": 7
        }
      }
    },
    {
      "doubleSided": true,
      "emissiveFactor": [
        1.0,
        1.0,
        1.0
      ],
      "emissiveTexture": {
        "index": 11
      },
      "name": "SM_TableSG14",
      "normalTexture": {
        "index": 12
      },
      "pbrMetallicRoughness": {
        "baseColorTexture": {
          "index": 9
        },
        "metallicRoughnessTexture": {
          "index": 10
        }
      }
    }
  ],
  "meshes": [
    {
      "name": "SM_Tri_Table_00_SM_TableSG9_0",
      "primitives": [
        {
          "attributes": {
            "NORMAL": 1,
            "POSITION": 0,
            "TEXCOORD_0": 2,
            "TEXCOORD_1": 3,
            "TEXCOORD_2": 4,
            "TEXCOORD_3": 5,
            "TEXCOORD_4": 6
          },
          "indices": 7,
          "material": 0,
          "mode": 4
        }
      ]
    },
    {
      "name": "SM_Tri_Table_00_SM_TableSG10_0",
      "primitives": [
        {
          "attributes": {
            "NORMAL": 9,
            "POSITION": 8,
            "TANGENT": 10,
            "TEXCOORD_0": 11,
            "TEXCOORD_1": 12,
            "TEXCOORD_2": 13,
            "TEXCOORD_3": 14,
            "TEXCOORD_4": 15
          },
          "indices": 16,
          "material": 1,
          "mode": 4
        }
      ]
    },
    {
      "name": "SM_Tri_Table_00_SM_TableSG8_0",
      "primitives": [
        {
          "attributes": {
            "NORMAL": 18,
            "POSITION": 17,
            "TEXCOORD_0": 19,
            "TEXCOORD_1": 20,
            "TEXCOORD_2": 21,
            "TEXCOORD_3": 22,
            "TEXCOORD_4": 23
          },
          "indices": 24,
          "material": 2,
          "mode": 4
        }
      ]
    },
    {
      "name": "SM_Tri_Table_00_SM_TableSG14_0",
      "primitives": [
        {
          "attributes": {
            "NORMAL": 26,
            "POSITION": 25,
            "TANGENT": 27,
            "TEXCOORD_0": 28,
            "TEXCOORD_1": 29,
            "TEXCOORD_2": 30,
            "TEXCOORD_3": 31,
            "TEXCOORD_4": 32
          },
          "indices": 33,
          "material": 3,
          "mode": 4
        }
      ]
    }
  ],
  "nodes": [
    {
      "children": [
        1
      ],
      "matrix": [
        1.0,
        0.0,
        0.0,
        0.0,
        0.0,
        2.220446049250313e-16,
        -1.0,
        0.0,
        0.0,
        1.0,
        2.220446049250313e-16,
        0.0,
        0.0,
        0.0,
        0.0,
        1.0
      ],
      "name": "Sketchfab_model"
    },
    {
      "children": [
        2
      ],
      "matrix": [
        1.0,
        0.0,
        0.0,
        0.0,
        0.0,
        0.0,
        1.0,
        0.0,
        0.0,
        -1.0,
        0.0,
        0.0,
        0.0,
        0.0,
        0.0,
        1.0
      ],
      "name": "5f350b43491649faac57515f1f425ec4.fbx"
    },
    {
      "children": [
        3
      ],
      "name": "RootNode"
    },
    {
      "children": [
        4,
        5,
        6,
        7
      ],
      "name": "SM_Tri_Table_00"
    },
    {
      "mesh": 0,
      "name": "SM_Tri_Table_00_SM_TableSG9_0"
    },
    {
      "mesh": 1,
      "name": "SM_Tri_Table_00_SM_TableSG10_0"
    },
    {
      "mesh": 2,
      "name": "SM_Tri_Table_00_SM_TableSG8_0"
    },
    {
      "mesh": 3,
      "name": "SM_Tri_Table_00_SM_TableSG14_0"
    }
  ],
  "samplers": [
    {
      "magFilter": 9729,
      "minFilter": 9987,
      "wrapS": 10497,
      "wrapT": 10497
    }
  ],
  "scene": 0,
  "scenes": [
    {
      "name": "Sketchfab_Scene",
      "nodes": [
        0
      ]
    }
  ],
  "textures": [
    {
      "sampler": 0,
      "source": 0
    },
    {
      "sampler": 0,
      "source": 1
    },
    {
      "sampler": 0,
      "source": 2
    },
    {
      "sampler": 0,
      "source": 3
    },
    {
      "sampler": 0,
      "source": 4
    },
    {
      "sampler": 0,
      "source": 5
    },
    {
      "sampler": 0,
      "source": 6
    },
    {
      "sampler": 0,
      "source": 7
    },
    {
      "sampler": 0,
      "source": 8
    },
    {
      "sampler": 0,
      "source": 9
    },
    {
      "sampler": 0,
      "source": 10
    },
    {
      "sampler": 0,
      "source": 11
    },
    {
      "sampler": 0,
      "source": 12
    }
  ]
}
