{
  "accessors": [
    {
      "bufferView": 2,
      "componentType": 5126,
      "count": 5731,
      "max": [
        7.9653000831604,
        0.9164000153541565,
        7.404619216918945
      ],
      "min": [
        -4.531199932098389,
        -1.1572999954223633,
        -0.6570000052452087
      ],
      "type": "VEC3"
    },
    {
      "bufferView": 2,
      "byteOffset": 68772,
      "componentType": 5126,
      "count": 5731,
      "max": [
        1.0,
        1.0,
        1.0
      ],
      "min": [
        -1.0,
        -1.0,
        -0.999974250793457
      ],
      "type": "VEC3"
    },
    {
      "bufferView": 1,
      "componentType": 5126,
      "count": 5731,
      "max": [
        2.9761769771575928,
        0.9853450059890747
      ],
      "min": [
        2.0145230293273926,
        0.01465499959886074
      ],
      "type": "VEC2"
    },
    {
      "bufferView": 0,
      "componentType": 5125,
      "count": 25680,
      "type": "SCALAR"
    },
    {
      "bufferView": 2,
      "byteOffset": 137544,
      "componentType": 5126,
      "count": 9852,
      "max": [
        7.9653000831604,
        0.7265750169754028,
        4.689599990844727
      ],
      "min": [
        -0.7106500267982483,
        -0.5507000088691711,
        -0.784850001335144
      ],
      "type": "VEC3"
    },
    {
      "bufferView": 2,
      "byteOffset": 255768,
      "componentType": 5126,
      "count": 9852,
      "max": [
        1.0,
        1.0,
        1.0
      ],
      "min": [
        -1.0,
        -1.0,
        -0.9999464750289917
      ],
      "type": "VEC3"
    },
    {
      "bufferView": 1,
      "byteOffset": 45848,
      "componentType": 5126,
      "count": 9852,
      "max": [
        2.9746220111846924,
        0.9825270175933838
      ],
      "min": [
        2.0145230293273926,
        0.01465499959886074
      ],
      "type": "VEC2"
    },
    {
      "bufferView": 0,
      "byteOffset": 102720,
      "componentType": 5125,
      "count": 47664,
      "type": "SCALAR"
    },
    {
      "bufferView": 2,
      "byteOffset": 373992,
      "componentType": 5126,
      "count": 8043,
      "max": [
        9.542902946472168,
        0.5055000185966492,
        7.248445987701416
      ],
      "min": [
        -3.928499937057495,
        -2.343419075012207,
        3.2509500980377197
      ],
      "type": "VEC3"
    },
    {
      "bufferView": 2,
      "byteOffset": 470508,
      "componentType": 5126,
      "count": 8043,
      "max": [
        1.0,
        1.0,
        0.9999786615371704
      ],
      "min": [
        -1.0,
        -1.0,
        -1.0
      ],
      "type": "VEC3"
    },
    {
      "bufferView": 1,
      "byteOffset": 124664,
      "componentType": 5126,
      "count": 8043,
      "max": [
        2.888823986053467,
        0.9790289998054504
      ],
      "min": [
        2.058053970336914,
        0.06294699758291245
      ],
      "type": "VEC2"
    },
    {
      "bufferView": 0,
      "byteOffset": 293376,
      "componentType": 5125,
      "count": 41760,
      "type": "SCALAR"
    },
    {
      "bufferView": 2,
      "byteOffset": 567024,
      "componentType": 5126,
      "count": 2615,
      "max": [
        4.839838027954102,
        -0.041475001722574234,
        4.824162006378174
      ],
      "min": [
        3.334700107574463,
        -0.31279999017715454,
        3.170949935913086
      ],
      "type": "VEC3"
    },
    {
      "bufferView": 2,
      "byteOffset": 598404,
      "componentType": 5126,
      "count": 2615,
      "max": [
        1.0,
        1.0,
        0.9999979734420776
      ],
      "min": [
        -1.0,
        -1.0,
        -0.9999944567680359
      ],
      "type": "VEC3"
    },
    {
      "bufferView": 1,
      "byteOffset": 189008,
      "componentType": 5126,
      "count": 2615,
      "max": [
        2.77931809425354,
        0.8919680118560791
      ],
      "min": [
        2.1933090686798096,
        0.2031569927930832
      ],
      "type": "VEC2"
    },
    {
      "bufferView": 0,
      "byteOffset": 460416,
      "componentType": 5125,
      "count": 13632,
      "type": "SCALAR"
    },
    {
      "bufferView": 2,
      "byteOffset": 629784,
      "componentType": 5126,
      "count": 11511,
      "max": [
        8.166000366210938,
        0.24709999561309814,
        5.73829984664917
      ],
      "min": [
        4.99399995803833,
        -0.5728999972343445,
        0.3461500108242035
      ],
      "type": "VEC3"
    },
    {
      "bufferView": 2,
      "byteOffset": 767916,
      "componentType": 5126,
      "count": 11511,
      "max": [
        0.9999984502792358,
        1.0,
        0.9991657733917236
      ],
      "min": [
        -1.0,
        -1.0,
        -0.9999914765357971
      ],
      "type": "VEC3"
    },
    {
      "bufferView": 1,
      "byteOffset": 209928,
      "componentType": 5126,
      "count": 11511,
      "max": [
        2.9729700088500977,
        0.975337028503418
      ],
      "min": [
        2.0145230293273926,
        0.019512999802827835
      ],
      "type": "VEC2"
    },
    {
      "bufferView": 0,
      "byteOffset": 514944,
      "componentType": 5125,
      "count": 62400,
      "type": "SCALAR"
    },
    {
      "bufferView": 2,
      "byteOffset": 906048,
      "componentType": 5126,
      "count": 30782,
      "max": [
        2.3680360317230225,
        1.1369229555130005,
        7.69898796081543
      ],
      "min": [
        -3.9187018871307373,
        -1.3709419965744019,
        3.180018901824951
      ],
      "type": "VEC3"
    },
    {
      "bufferView": 2,
      "byteOffset": 1275432,
      "componentType": 5126,
      "count": 30782,
      "max": [
        1.0,
        0.9999989867210388,
        1.0
      ],
      "min": [
        -0.9999998807907104,
        -0.9999998807907104,
        -0.9999997615814209
      ],
      "type": "VEC3"
    },
    {
      "bufferView": 3,
      "componentType": 5126,
      "count": 30782,
      "max": [
        1.0,
        0.9999527335166931,
        0.9988888502120972,
        1.0
      ],
      "min": [
        -1.0,
        -0.9999532103538513,
        -0.9999946355819702,
        -1.0
      ],
      "type": "VEC4"
    },
    {
      "bufferView": 1,
      "byteOffset": 302016,
      "componentType": 5126,
      "count": 30782,
      "max": [
        1.9635460376739502,
        0.9516339898109436
      ],
      "min": [
        1.0337690114974976,
        0.03325900062918663
      ],
      "type": "VEC2"
    },
    {
      "bufferView": 0,
      "byteOffset": 764544,
      "componentType": 5125,
      "count": 170088,
      "type": "SCALAR"
    },
    {
      "bufferView": 2,
      "byteOffset": 1644816,
      "componentType": 5126,
      "count": 22054,
      "max": [
        6.7646050453186035,
        1.1956379413604736,
        6.483980178833008
      ],
      "min": [
        2.503848075866699,
        -1.3652199506759644,
        2.1254971027374268
      ],
      "type": "VEC3"
    },
    {
      "bufferView": 2,
      "byteOffset": 1909464,
      "componentType": 5126,
      "count": 22054,
      "max": [
        0.9999778866767883,
        0.999982476234436,
        1.0
      ],
      "min": [
        -0.9999760985374451,
        -0.9999821186065674,
        -1.0
      ],
      "type": "VEC3"
    },
    {
      "bufferView": 3,
      "byteOffset": 492512,
      "componentType": 5126,
      "count": 22054,
      "max": [
        1.0,
        1.0,
        0.9999904632568359,
        1.0
      ],
      "min": [
        -1.0,
        -1.0,
        -0.9995472431182861,
        -1.0
      ],
      "type": "VEC4"
    },
    {
      "bufferView": 1,
      "byteOffset": 548272,
      "componentType": 5126,
      "count": 22054,
      "max": [
        1.9662309885025024,
        0.822068989276886
      ],
      "min": [
        1.0337690114974976,
        0.03325900062918663
      ],
      "type": "VEC2"
    },
    {
      "bufferView": 0,
      "byteOffset": 1444896,
      "componentType": 5125,
      "count": 118080,
      "type": "SCALAR"
    },
    {
      "bufferView": 2,
      "byteOffset": 2174112,
      "componentType": 5126,
      "count": 8342,
      "max": [
        10.555402755737305,
        1.6172230243682861,
        8.236909866333008
      ],
      "min": [
        4.628879070281982,
        -1.8899379968643188,
        4.5043559074401855
      ],
      "type": "VEC3"
    },
    {
      "bufferView": 2,
      "byteOffset": 2274216,
      "componentType": 5126,
      "count": 8342,
      "max": [
        0.9993877410888672,
        1.0,
        1.0
      ],
      "min": [
        -0.999652624130249,
        -1.0,
        -0.9999980926513672
      ],
      "type": "VEC3"
    },
    {
      "bufferView": 3,
      "byteOffset": 845376,
      "componentType": 5126,
      "count": 8342,
      "max": [
        0.9999373555183411,
        0.9999973177909851,
        0.9984711408615112,
        1.0
      ],
      "min": [
        -0.9999994039535522,
        -0.9999974966049194,
        -0.998144268989563,
        -1.0
      ],
      "type": "VEC4"
    },
    {
      "bufferView": 1,
      "byteOffset": 724704,
      "componentType": 5126,
      "count": 8342,
      "max": [
        1.9114810228347778,
        0.9082369804382324
      ],
      "min": [
        1.0337690114974976,
        0.03325900062918663
      ],
      "type": "VEC2"
    },
    {
      "bufferView": 0,
      "byteOffset": 1917216,
      "componentType": 5125,
      "count": 46296,
      "type": "SCALAR"
    },
    {
      "bufferView": 2,
      "byteOffset": 2374320,
      "componentType": 5126,
      "count": 6324,
      "max": [
        7.987218856811523,
        0.7136859893798828,
        8.079781532287598
      ],
      "min": [
        -3.5626230239868164,
        -1.0270440578460693,
        -0.9493669867515564
      ],
      "type": "VEC3"
    },
    {
      "bufferView": 2,
      "byteOffset": 2450208,
      "componentType": 5126,
      "count": 6324,
      "max": [
        1.0,
        0.9999729990959167,
        1.0
      ],
      "min": [
        -1.0,
        -0.9998483657836914,
        -1.0
      ],
      "type": "VEC3"
    },
    {
      "bufferView": 3,
      "byteOffset": 978848,
      "componentType": 5126,
      "count": 6324,
      "max": [
        0.9999789595603943,
        1.0,
        0.9989507794380188,
        1.0
      ],
      "min": [
        -0.9999706149101257,
        -1.0,
        -0.9995774626731873,
        -1.0
      ],
      "type": "VEC4"
    },
    {
      "bufferView": 1,
      "byteOffset": 791440,
      "componentType": 5126,
      "count": 6324,
      "max": [
        1.9443880319595337,
        0.8424059748649597
      ],
      "min": [
        1.1964449882507324,
        0.03325900062918663
      ],
      "type": "VEC2"
    },
    {
      "bufferView": 0,
      "byteOffset": 2102400,
      "componentType": 5125,
      "count": 33168,
      "type": "SCALAR"
    },
    {
      "bufferView": 2,
      "byteOffset": 2526096,
      "componentType": 5126,
      "count": 8573,
      "max": [
        9.586228370666504,
        0.9395319819450378,
        7.625123977661133
      ],
      "min": [
        0.3306789994239807,
        -1.1647700071334839,
        5.5078840255737305
      ],
      "type": "VEC3"
    },
    {
      "bufferView": 2,
      "byteOffset": 2628972,
      "componentType": 5126,
      "count": 8573,
      "max": [
        1.0,
        1.0,
        1.0
      ],
      "min": [
        -1.0,
        -1.0,
        -1.0
      ],
      "type": "VEC3"
    },
    {
      "bufferView": 1,
      "byteOffset": 842032,
      "componentType": 5126,
      "count": 8573,
      "max": [
        0.9801629781723022,
        0.9098029732704163
      ],
      "min": [
        0.019836999475955963,
        0.0184129998087883
      ],
      "type": "VEC2"
    },
    {
      "bufferView": 0,
      "byteOffset": 2235072,
      "componentType": 5125,
      "count": 44544,
      "type": "SCALAR"
    },
    {
      "bufferView": 2,
      "byteOffset": 2731848,
      "componentType": 5126,
      "count": 5684,
      "max": [
        6.725351810455322,
        -0.6100940108299255,
        7.274203777313232
      ],
      "min": [
        5.4444451332092285,
        -1.1951249837875366,
        5.191389083862305
      ],
      "type": "VEC3"
    },
    {
      "bufferView": 2,
      "byteOffset": 2800056,
      "componentType": 5126,
      "count": 5684,
      "max": [
        0.9996535181999207,
        0.9997135400772095,
        0.9771712422370911
      ],
      "min": [
        -0.9996247887611389,
        -0.9999988675117493,
        -0.9972543716430664
      ],
      "type": "VEC3"
    },
    {
      "bufferView": 1,
      "byteOffset": 910616,
      "componentType": 5126,
      "count": 5684,
      "max": [
        0.903016984462738,
        0.21477200090885162
      ],
      "min": [
        0.019836999475955963,
        0.0184129998087883
      ],
      "type": "VEC2"
    },
    {
      "bufferView": 0,
      "byteOffset": 2413248,
      "componentType": 5125,
      "count": 30048,
      "type": "SCALAR"
    }
  ],
  "asset": {
    "extras": {
      "author": "Paulo.liv (https://sketchfab.com/Reivilodius)",
      "license": "CC-BY-4.0 (http://creativecommons.org/licenses/by/4.0/)",
      "source": "https://sketchfab.com/3d-models/nerf-gun-ba0ad4ac188147548e1574c7fe4ea87b",
      "title": "Nerf Gun"
    },
    "generator": "Sketchfab-12.67.0",
    "version": "2.0"
  },
  "bufferViews": [
    {
      "buffer": 0,
      "byteLength": 2533440,
      "name": "floatBufferViews",
      "target": 34963
    },
    {
      "buffer": 0,
      "byteLength": 956088,
      "byteOffset": 2533440,
      "byteStride": 8,
      "name": "floatBufferViews",
      "target": 34962
    },
    {
      "buffer": 0,
      "byteLength": 2868264,
      "byteOffset": 3489528,
      "byteStride": 12,
      "name": "floatBufferViews",
      "target": 34962
    },
    {
      "buffer": 0,
      "byteLength": 1080032,
      "byteOffset": 6357792,
      "byteStride": 16,
      "name": "floatBufferViews",
      "target": 34962
    }
  ],
  "buffers": [
    {
      "byteLength": 7437824,
      "uri": "scene.bin"
    }
  ],
  "extensionsUsed": [
    "KHR_materials_clearcoat"
  ],
  "images": [
    {
      "uri": "textures/PxrSurface7SG_baseColor.png"
    },
    {
      "uri": "textures/PxrSurface7SG_metallicRoughness.png"
    },
    {
      "uri": "textures/PxrSurface8SG_baseColor.png"
    },
    {
      "uri": "textures/PxrSurface8SG_metallicRoughness.png"
    },
    {
      "uri": "textures/PxrSurface8SG_normal.png"
    },
    {
      "uri": "textures/PxrSurface9SG_baseColor.png"
    }
  ],
  "materials": [
    {
      "doubleSided": true,
      "extensions": {
        "KHR_materials_clearcoat": {
          "clearcoatFactor": 1.0,
          "clearcoatRoughnessFactor": 0.04
        }
      },
      "name": "PxrSurface7SG",
      "pbrMetallicRoughness": {
        "baseColorTexture": {
          "index": 0
        },
        "metallicFactor": 0.0,
        "metallicRoughnessTexture": {
          "index": 1
        },
        "roughnessFactor": 0.37868078482875195
      }
    },
    {
      "doubleSided": true,
      "extensions": {
        "KHR_materials_clearcoat": {
          "clearcoatFactor": 1.0,
          "clearcoatRoughnessFactor": 0.1050729924788258
        }
      },
      "name": "PxrSurface8SG",
      "normalTexture": {
        "index": 4
      },
      "pbrMetallicRoughness": {
        "baseColorTexture": {
          "index": 2
        },
        "metallicFactor": 0.0,
        "metallicRoughnessTexture": {
          "index": 3
        },
        "roughnessFactor": 0.044271260845508885
      }
    },
    {
      "doubleSided": true,
      "extensions": {
        "KHR_materials_clearcoat": {
          "clearcoatFactor": 1.0,
          "clearcoatRoughnessFactor": 0.04
        }
      },
      "name": "PxrSurface9SG",
      "pbrMetallicRoughness": {
        "baseColorTexture": {
          "index": 5
        },
        "metallicFactor": 0.2509971483987864,
        "roughnessFactor": 0.36044026533875684
      }
    }
  ],
  "meshes": [
    {
      "name": "Object_0",
      "primitives": [
        {
          "attributes": {
            "NORMAL": 1,
            "POSITION": 0,
            "TEXCOORD_0": 2
          },
          "indices": 3,
          "material": 0,
          "mode": 4
        }
      ]
    },
    {
      "name": "Object_1",
      "primitives": [
        {
          "attributes": {
            "NORMAL": 5,
            "POSITION": 4,
            "TEXCOORD_0": 6
          },
          "indices": 7,
          "material": 0,
          "mode": 4
        }
      ]
    },
    {
      "name": "Object_2",
      "primitives": [
        {
          "attributes": {
            "NORMAL": 9,
            "POSITION": 8,
            "TEXCOORD_0": 10
          },
          "indices": 11,
          "material": 0,
          "mode": 4
        }
      ]
    },
    {
      "name": "Object_3",
      "primitives": [
        {
          "attributes": {
            "NORMAL": 13,
            "POSITION": 12,
            "TEXCOORD_0": 14
          },
          "indices": 15,
          "material": 0,
          "mode": 4
        }
      ]
    },
    {
      "name": "Object_4",
      "primitives": [
        {
          "attributes": {
            "NORMAL": 17,
            "POSITION": 16,
            "TEXCOORD_0": 18
          },
          "indices": 19,
          "material": 0,
          "mode": 4
        }
      ]
    },
    {
      "name": "Object_5",
      "primitives": [
        {
          "attributes": {
            "NORMAL": 21,
            "POSITION": 20,
            "TANGENT": 22,
            "TEXCOORD_0": 23
          },
          "indices": 24,
          "material": 1,
          "mode": 4
        }
      ]
    },
    {
      "name": "Object_6",
      "primitives": [
        {
          "attributes": {
            "NORMAL": 26,
            "POSITION": 25,
            "TANGENT": 27,
            "TEXCOORD_0": 28
          },
          "indices": 29,
          "material": 1,
          "mode": 4
        }
      ]
    },
    {
      "name": "Object_7",
      "primitives": [
        {
          "attributes": {
            "NORMAL": 31,
            "POSITION": 30,
            "TANGENT": 32,
            "TEXCOORD_0": 33
          },
          "indices": 34,
          "material": 1,
          "mode": 4
        }
      ]
    },
    {
      "name": "Object_8",
      "primitives": [
        {
          "attributes": {
            "NORMAL": 36,
            "POSITION": 35,
            "TANGENT": 37,
            "TEXCOORD_0": 38
          },
          "indices": 39,
          "material": 1,
          "mode": 4
        }
      ]
    },
    {
      "name": "Object_9",
      "primitives": [
        {
          "attributes": {
            "NORMAL": 41,
            "POSITION": 40,
            "TEXCOORD_0": 42
          },
          "indices": 43,
          "material": 2,
          "mode": 4
        }
      ]
    },
    {
      "name": "Object_10",
      "primitives": [
        {
          "attributes": {
            "NORMAL": 45,
            "POSITION": 44,
            "TEXCOORD_0": 46
          },
          "indices": 47,
          "material": 2,
          "mode": 4
        }
      ]
    }
  ],
  "nodes": [
    {
      "children": [
        1
      ],
      "matrix": [
        1.0,
        0.0,
        0.0,
        0.0,
        0.0,
        2.220446049250313e-16,
        -1.0,
        0.0,
        0.0,
        1.0,
        2.220446049250313e-16,
        0.0,
        0.0,
        0.0,
        0.0,
        1.0
      ],
      "name": "Sketchfab_model"
    },
    {
      "children": [
        2,
        3,
        4,
        5,
        6,
        7,
        8,
        9,
        10,
        11,
        12
      ],
      "name": "FINAL.obj.cleaner.materialmerger.gles"
    },
    {
      "mesh": 0,
      "name": "Object_2"
    },
    {
      "mesh": 1,
      "name": "Object_3"
    },
    {
      "mesh": 2,
      "name": "Object_4"
    },
    {
      "mesh": 3,
      "name": "Object_5"
    },
    {
      "mesh": 4,
      "name": "Object_6"
    },
    {
      "mesh": 5,
      "name": "Object_7"
    },
    {
      "mesh": 6,
      "name": "Object_8"
    },
    {
      "mesh": 7,
      "name": "Object_9"
    },
    {
      "mesh": 8,
      "name": "Object_10"
    },
    {
      "mesh": 9,
      "name": "Object_11"
    },
    {
      "mesh": 10,
      "name": "Object_12"
    }
  ],
  "samplers": [
    {
      "magFilter": 9729,
      "minFilter": 9987,
      "wrapS": 10497,
      "wrapT": 10497
    }
  ],
  "scene": 0,
  "scenes": [
    {
      "name": "Sketchfab_Scene",
      "nodes": [
        0
      ]
    }
  ],
  "textures": [
    {
      "sampler": 0,
      "source": 0
    },
    {
      "sampler": 0,
      "source": 1
    },
    {
      "sampler": 0,
      "source": 2
    },
    {
      "sampler": 0,
      "source": 3
    },
    {
      "sampler": 0,
      "source": 4
    },
    {
      "sampler": 0,
      "source": 5
    }
  ]
}
